/* XPM */
static char *_ec2d0c30ff140f5ada6d6c5afea33dfzt732Fj0dGckLYWu[] = {
/* columns rows colors chars-per-pixel */
"44 64 204 2 ",
"   c None",
".  c #020202",
"X  c #0B0102",
"o  c #030209",
"O  c #020808",
"+  c #150104",
"@  c #240203",
"#  c #2B0103",
"$  c #3C0204",
"%  c #27170A",
"&  c #231815",
"*  c #311719",
"=  c #3B2D18",
"-  c #4E0204",
";  c #4D0308",
":  c #520104",
">  c #550107",
",  c #431D1D",
"<  c #5F1016",
"1  c #660B1B",
"2  c #680B1A",
"3  c #68111D",
"4  c #492D13",
"5  c #4C3015",
"6  c #6F2C10",
"7  c #460C27",
"8  c #79112A",
"9  c #452528",
"0  c #433736",
"q  c #5C3836",
"w  c #56282C",
"e  c #7E3B3B",
"r  c #7E3938",
"t  c #70322B",
"y  c #6A4417",
"u  c #544023",
"i  c #6A4837",
"p  c #6E5032",
"a  c #7C623F",
"s  c #3A3A78",
"d  c #2B3474",
"f  c #17266E",
"g  c #413F41",
"h  c #4F3870",
"j  c #3F4043",
"k  c #58475C",
"l  c #624A4F",
"z  c #6C5750",
"x  c #7E695F",
"c  c #4F767E",
"v  c #7E6963",
"b  c #686D6B",
"n  c #811532",
"m  c #971C33",
"M  c #A91F39",
"N  c #813937",
"B  c #81393B",
"V  c #803637",
"C  c #A6223B",
"Z  c #8D591C",
"A  c #8C5919",
"S  c #92551D",
"D  c #91591D",
"F  c #98551D",
"G  c #8D5921",
"H  c #8C5725",
"J  c #915621",
"K  c #905922",
"L  c #955A29",
"P  c #934C2C",
"I  c #AC5234",
"U  c #B25E38",
"Y  c #A54639",
"T  c #806E39",
"R  c #A86E39",
"E  c #8F1D45",
"W  c #AC275A",
"Q  c #B1265B",
"!  c #B62C59",
"~  c #BD3259",
"^  c #AE264A",
"/  c #923A7F",
"(  c #AC2A64",
")  c #B22862",
"_  c #C5325B",
"`  c #D43457",
"'  c #C92D5C",
"]  c #D73469",
"[  c #FF3F72",
"{  c #E83A6A",
"}  c #944D50",
"|  c #BF5454",
" . c #B07154",
".. c #806963",
"X. c #806760",
"o. c #907A78",
"O. c #B16A67",
"+. c #C55856",
"@. c #C74D48",
"#. c #E3455D",
"$. c #C56548",
"%. c #DB645A",
"&. c #E7695B",
"*. c #FE4171",
"=. c #FD6F6C",
"-. c #FD716D",
";. c #FE6F72",
":. c #FD7271",
">. c #D95C75",
",. c #B38F3C",
"<. c #A98055",
"1. c #BD887B",
"2. c #B58166",
"3. c #C0A255",
"4. c #C98F71",
"5. c #FD8D6E",
"6. c #FE897F",
"7. c #E1806D",
"8. c #EAB162",
"9. c #FED874",
"0. c #1E318E",
"q. c #1A3287",
"w. c #1E2D90",
"e. c #1D3194",
"r. c #1E2F8D",
"t. c #232E89",
"y. c #21318D",
"u. c #222F92",
"i. c #213191",
"p. c #263D93",
"a. c #3B3691",
"s. c #294494",
"d. c #2E4D96",
"f. c #315C99",
"g. c #2F519D",
"h. c #386B9C",
"j. c #3F7F9E",
"k. c #3C6CA4",
"l. c #3F7DA1",
"z. c #525581",
"x. c #785087",
"c. c #427E9C",
"v. c #586F8A",
"b. c #7E7B81",
"n. c #427EA2",
"m. c #817B80",
"M. c #D3738B",
"N. c #3E819C",
"B. c #3C80A2",
"V. c #41819C",
"C. c #7E8B89",
"Z. c #74A49A",
"A. c #4485A4",
"S. c #5294AF",
"D. c #5DACB5",
"F. c #63ADB8",
"G. c #67B7BD",
"H. c #6FB8C6",
"J. c #7DDACD",
"K. c #7DD8D1",
"L. c #71C3C0",
"P. c #BD9C8F",
"I. c #BE9D91",
"U. c #8BB89D",
"Y. c #BFB18B",
"T. c #BCB9BC",
"R. c #96A3A3",
"E. c #CA9790",
"W. c #FD8887",
"Q. c #F39791",
"!. c #C6A78E",
"~. c #C5AA8B",
"^. c #C9A690",
"/. c #FBA297",
"(. c #F0B796",
"). c #CFAAA7",
"_. c #D9B9AB",
"`. c #F5B8AB",
"'. c #FECEBE",
"]. c #F6CBB6",
"[. c #FDD1BD",
"{. c #83D8CC",
"}. c #83D6CB",
"|. c #82D9D2",
" X c #83D7D3",
".X c #A1E0DA",
"XX c #BEEAE3",
"oX c #E3CFC4",
"OX c #FDCEC1",
"+X c #E2D2C3",
"@X c #FDD2C2",
"#X c #FCDBCC",
"$X c #FCD8D5",
"%X c #E9D9D5",
"&X c #F0E5DC",
"*X c #CEDBE7",
"=X c #DEF1F1",
"-X c #CEEAED",
";X c #EEEEEE",
":X c #FDECEA",
">X c #FDF6FD",
",X c #FCFAFC",
"<X c #FDF6F3",
"1X c #E7F0F1",
/* pixels */
",X,X,X,X                                                      ;X;X;X;X;X;X;X;X;X        ",
"                                                                                        ",
"                                                                                        ",
"                                                                                        ",
"                                                                                        ",
"                                                                                        ",
"                                                                                        ",
"                                                                                        ",
"                                  : : ; : : : : -                                       ",
"                                : m Y R Y C M m 8 8                                     ",
"                              : : ` 5.9.5.[ [ ] ) n >                                   ",
"                              : > M.(.9.8.&.[ { ] ^ 8 :                                 ",
"                              $ $ R.~.3.,.R _ ' ` _ W 1 1                               ",
"                        . . . . . . . . O . . # : C { Q E >                             ",
"                      . . . . . . . o . . . . + @ 3 ^ ] ' 8 X.-                         ",
"                      . . . . . . . X + X . o X + # 1 ` ' Q > :                         ",
"                      . . . . . X . # : # . . # : # + : 2 ) - -                         ",
"                      . o . + . . . + - @ X o @ $ @ @ : 2 W 1 1                         ",
"                        . X ; + O . . . . . . . . # : - 1 ) W W -                       ",
"                            . | -., N :.r . . . . . . . + > ) ( >                       ",
"                            . | -.* N :.N . o o o . . . + - ( ( :                       ",
"                            . . X +.B o . , =.N . X . X + : Q W :                       ",
"                              T.T.`._.T.T.).-.%.| w . . . + 2 2 :                       ",
"                              ,X,X$X:X>X>X$X;.;.-.N . o O . - - :                       ",
"                              j . I.v . b.;X@X/.=.B . . 0 '.-.:.1X                      ",
"                      J [.[.<Xu . I.v . o.:XOX/.=.B . . 0 ].U U W.                      ",
"                      J [.@X,X0 . P.v . b.;X@X/.;.e . . 0 OXA A :.                      ",
"                      J @X[.$X).I.Q.&.| Q.#X'.o., % . . 9 W.D D -.                      ",
"                      A @X@X'.@X@XW.-.-./.[.'.v o . O . , -.K J :.                      ",
"                      Z W.W.W.6.6. .t , 0 z OX_.P.l * +.%.-.%.&.                        ",
"                      4 N r e N V 5 % X X & ..1./.O.B N e r N N                         ",
"                      . . . . o . . . . . . o e -.-.+.. . . . .                         ",
"                      y X . O X . o o . l I.I.7.=.%.L y y y _ ~ :                       ",
"                  A  .~.5 4 5 z v v v v I.]./.7.U 4.!.!.!.~.@.@.:                       ",
"                  Z <.,XD A K _.OX[.].@X@X`.=.| D ^.>X,X<X,XS G :                       ",
"                H ~._.,XG J ~.4.4.4.2.O.O. .$.4.~.+X,X,X,X<X~.~.6                       ",
"                D ,X,X,X .<.+X .I I t 7 7 w S ~.,X,X>X,X>X>X>X,XD                       ",
"                D ,X<X,X>X,XH #.*.*./ 0.u.s S E.,X,X,X>X,X>X>X,XD                       ",
"                H +X%X,X*X*XP #.{ M.x.s.a.h P 1.oX&X>X,X<X,X+X+XL                       ",
"                  G <.,Xl.l.( ( ^ v.c.n.v ! Q } Z ~.,X,X>X,XG J                         ",
"                      K V.V.- - > Z.{.K.b : : > : 6 K F J Z                             ",
"                      R c c q q g R..X.XC.q q w 9 i z T a i                             ",
"                  . 5 9.F D J.{. X1X>X>XXX|.K.F.N.N.j.j.h.r.                            ",
"                . . O . A A A.L. X1X>X>XXX|.|.D.V.N.h.0.t.y.                            ",
"                . . . . J G c.L.|.=X,X,XXX|.|.D.j.l.h.q.e.i.                            ",
"                . . . . J D G U.K.{.{.{.{. X|.F.j.j.h.r.0.e.o o                         ",
"                . . . . Z G D z.f.H.J.K.G.S.S.A.l.h.p.y.e.t.y y X                       ",
"                . . . . K D G s i.F.|.|.D.A.N.N.j.f.i.y.y.0.J J .                       ",
"                . . . . Z Z % f y.g.S. XF.n.s.p.s.p.y.q.s p H G .                       ",
"                . . . . 5 4 X f y.y.n.n.n.s.w.u.y.u.d k l A K J .                       ",
"                . . . . o o         y.i.u.w.u.w.y.e.h H Z K Z G .                       ",
"                  . . .                 u.w.u.u.0.0.  & u 8.D G .                       ",
"                  . . .                   y.y.y.y.    o = T 5 5 .                       ",
"                                                          . . .                         ",
"                                                          X . .                         ",
"                                                                                        ",
"                                                                                        ",
"                                                                                        ",
"                                                                                        ",
"                                                                                        ",
"                                                                                        ",
"                                                                                        ",
"                                                                                        ",
"                                      ;X;X;X;X;X;X;X;X;X;X;X                            "
};
