/* XPM */
static char * so_long_mario_xpm[] = {
"64 64 332 2",
"  	c #20035A",
". 	c #0E0242",
"+ 	c #000135",
"@ 	c #010029",
"# 	c #310455",
"$ 	c #00001C",
"% 	c #00001A",
"& 	c #00001D",
"* 	c #00001E",
"= 	c #000021",
"- 	c #0D0248",
"; 	c #000018",
"> 	c #000016",
", 	c #000017",
"' 	c #00001F",
") 	c #000026",
"! 	c #000028",
"~ 	c #000029",
"{ 	c #00002A",
"] 	c #00002B",
"^ 	c #000022",
"/ 	c #000020",
"( 	c #00001B",
"_ 	c #000019",
": 	c #000024",
"< 	c #000025",
"[ 	c #000027",
"} 	c #000023",
"| 	c #000015",
"1 	c #000013",
"2 	c #000014",
"3 	c #00002C",
"4 	c #00002D",
"5 	c #00002E",
"6 	c #000030",
"7 	c #000120",
"8 	c #00002F",
"9 	c #000140",
"0 	c #000012",
"a 	c #000032",
"b 	c #000033",
"c 	c #000031",
"d 	c #000147",
"e 	c #000139",
"f 	c #00013D",
"g 	c #00013E",
"h 	c #000036",
"i 	c #000134",
"j 	c #000145",
"k 	c #00013F",
"l 	c #520104",
"m 	c #4D0308",
"n 	c #4D0207",
"o 	c #971C33",
"p 	c #A54639",
"q 	c #A86E39",
"r 	c #A6223B",
"s 	c #A91F39",
"t 	c #79112A",
"u 	c #78112A",
"v 	c #000141",
"w 	c #D43457",
"x 	c #FD8D6E",
"y 	c #FED874",
"z 	c #FF3F72",
"A 	c #D73469",
"B 	c #B22862",
"C 	c #811532",
"D 	c #550107",
"E 	c #D3738B",
"F 	c #F0B796",
"G 	c #EAB162",
"H 	c #E7695B",
"I 	c #E83A6A",
"J 	c #AE264A",
"K 	c #3C0204",
"L 	c #96A3A3",
"M 	c #C5AA8B",
"N 	c #C0A255",
"O 	c #B38F3C",
"P 	c #C5325B",
"Q 	c #C92D5C",
"R 	c #AC275A",
"S 	c #660B1B",
"T 	c #030025",
"U 	c #020202",
"V 	c #020808",
"W 	c #2B0103",
"X 	c #B1265B",
"Y 	c #8F1D45",
"Z 	c #030209",
"` 	c #150104",
" .	c #240203",
"..	c #68111D",
"+.	c #806760",
"@.	c #450215",
"#.	c #00012A",
"$.	c #0B0102",
"%.	c #00012D",
"&.	c #000132",
"*.	c #000130",
"=.	c #020210",
"-.	c #680B1A",
";.	c #4E0204",
">.	c #020211",
",.	c #000131",
"'.	c #020208",
").	c #BF5454",
"!.	c #FD716D",
"~.	c #431D1D",
"{.	c #813937",
"].	c #FD7271",
"^.	c #7E3938",
"/.	c #AC2A64",
"(.	c #00013B",
"_.	c #311719",
":.	c #C55856",
"<.	c #81393B",
"[.	c #FD6F6C",
"}.	c #BCB9BC",
"|.	c #F5B8AB",
"1.	c #D9B9AB",
"2.	c #CFAAA7",
"3.	c #DB645A",
"4.	c #56282C",
"5.	c #0A0357",
"6.	c #FCFAFC",
"7.	c #FCD8D5",
"8.	c #FDECEA",
"9.	c #FDF6FD",
"0.	c #FE6F72",
"a.	c #3F4043",
"b.	c #BE9D91",
"c.	c #7E6963",
"d.	c #7E7B81",
"e.	c #EEEEEE",
"f.	c #FDD2C2",
"g.	c #FBA297",
"h.	c #433736",
"i.	c #FECEBE",
"j.	c #E7F0F1",
"k.	c #915621",
"l.	c #FDD1BD",
"m.	c #FDF6F3",
"n.	c #544023",
"o.	c #907A78",
"p.	c #FDCEC1",
"q.	c #F6CBB6",
"r.	c #B25E38",
"s.	c #FD8887",
"t.	c #BD9C8F",
"u.	c #7E3B3B",
"v.	c #8C5919",
"w.	c #F39791",
"x.	c #FCDBCC",
"y.	c #27170A",
"z.	c #452528",
"A.	c #91591D",
"B.	c #905922",
"C.	c #8D591C",
"D.	c #FE897F",
"E.	c #B07154",
"F.	c #70322B",
"G.	c #6C5750",
"H.	c #624A4F",
"I.	c #02013F",
"J.	c #492D13",
"K.	c #803637",
"L.	c #4C3015",
"M.	c #231815",
"N.	c #806963",
"O.	c #BD887B",
"P.	c #B16A67",
"Q.	c #6A4417",
"R.	c #E1806D",
"S.	c #955A29",
"T.	c #BD3259",
"U.	c #C98F71",
"V.	c #C6A78E",
"W.	c #C74D48",
"X.	c #A98055",
"Y.	c #C9A690",
"Z.	c #92551D",
"`.	c #8D5921",
" +	c #8C5725",
".+	c #B58166",
"++	c #C56548",
"@+	c #E2D2C3",
"#+	c #6F2C10",
"$+	c #00013C",
"%+	c #08024E",
"&+	c #AC5234",
"*+	c #460C27",
"=+	c #E3455D",
"-+	c #FE4171",
";+	c #923A7F",
">+	c #1E318E",
",+	c #222F92",
"'+	c #3A3A78",
")+	c #CA9790",
"!+	c #020139",
"~+	c #E9D9D5",
"{+	c #CEDBE7",
"]+	c #934C2C",
"^+	c #785087",
"/+	c #294494",
"(+	c #3B3691",
"_+	c #4F3870",
":+	c #E3CFC4",
"<+	c #F0E5DC",
"[+	c #050253",
"}+	c #3F7DA1",
"|+	c #586F8A",
"1+	c #427E9C",
"2+	c #427EA2",
"3+	c #B62C59",
"4+	c #944D50",
"5+	c #100252",
"6+	c #41819C",
"7+	c #74A49A",
"8+	c #83D8CC",
"9+	c #7DD8D1",
"0+	c #686D6B",
"a+	c #98551D",
"b+	c #4F767E",
"c+	c #5C3836",
"d+	c #413F41",
"e+	c #A1E0DA",
"f+	c #7E8B89",
"g+	c #6A4837",
"h+	c #806E39",
"i+	c #7C623F",
"j+	c #7DDACD",
"k+	c #83D7D3",
"l+	c #BEEAE3",
"m+	c #82D9D2",
"n+	c #63ADB8",
"o+	c #3E819C",
"p+	c #3F7F9E",
"q+	c #386B9C",
"r+	c #1E2F8D",
"s+	c #4485A4",
"t+	c #71C3C0",
"u+	c #5DACB5",
"v+	c #232E89",
"w+	c #21318D",
"x+	c #DEF1F1",
"y+	c #1A3287",
"z+	c #1D3194",
"A+	c #213191",
"B+	c #8BB89D",
"C+	c #525581",
"D+	c #315C99",
"E+	c #6FB8C6",
"F+	c #67B7BD",
"G+	c #5294AF",
"H+	c #263D93",
"I+	c #050143",
"J+	c #06013F",
"K+	c #12024F",
"L+	c #1F055F",
"M+	c #17266E",
"N+	c #2F519D",
"O+	c #6E5032",
"P+	c #03013B",
"Q+	c #1E2D90",
"R+	c #2B3474",
"S+	c #58475C",
"T+	c #040248",
"U+	c #01013D",
"V+	c #030145",
"W+	c #050247",
"X+	c #020134",
"Y+	c #370555",
"Z+	c #1C0247",
"`+	c #040247",
" @	c #2E0560",
".@	c #020137",
"+@	c #05013D",
"@@	c #020213",
"#@	c #020209",
"$@	c #3B2D18",
"%@	c #04002F",
"&@	c #010135",
"*@	c #190245",
"=@	c #030135",
"-@	c #07013A",
";@	c #130244",
">@	c #0A024C",
",@	c #09024F",
"'@	c #0C0140",
")@	c #020029",
"!@	c #01002D",
"~@	c #010137",
"{@	c #040130",
"]@	c #02002C",
"^@	c #02013B",
"/@	c #14035A",
"(@	c #0B024B",
"_@	c #05013B",
":@	c #1A0243",
"<@	c #15024D",
"[@	c #1B0250",
"}@	c #210357",
"|@	c #0B0144",
"1@	c #0F0245",
"2@	c #260352",
"3@	c #0F013E",
"4@	c #050136",
"5@	c #2F0458",
"6@	c #1C0354",
"7@	c #070143",
"8@	c #05013F",
"9@	c #0C0143",
"0@	c #110249",
"a@	c #170247",
"b@	c #0F0144",
"c@	c #16024B",
"d@	c #09013B",
"e@	c #14024C",
"f@	c #2A0459",
"g@	c #210354",
"h@	c #1A0249",
"i@	c #2B0356",
"j@	c #0A0144",
"k@	c #160249",
"l@	c #09013E",
"m@	c #010036",
"n@	c #33066F",
"o@	c #250459",
"p@	c #3C066B",
"q@	c #050139",
"          . . . . + @ @ @ @ # # # $ % & & & * * = - - - - - ; > , $ ' = ) ! ~ ~ { ] { ! & & & & & & & & & & ^ ^ & & ^ ^ ^       ",
". . . . . . . . @ @ @ @ @ # # * ' / ^ & & & & ( - - , _ , , % _ $ = : ^ ^ ! { { { ] ! < ) [ ! : = & ' / } & : } = ^ < : = * . . ",
". . . . . . @ @ @ @ # # # * $ $ ' ' % > ; % ( ; | 1 | ; _ ( ( $ / } ) : ^ [ ! ~ ~ ~ ) : ] { ~ [ ~ < } } : ! ! < . . . . . . . . ",
". . . . . . . @ # # # = ' & $ ' } / _ ; ; , % ; 2 > _ % % & ^ } = ) 3 4 ! [ ! { { ! { 4 { ~ 5 3 6 6 6 ) ) [ [ ! : } . . . . . . ",
". . . @ @ @ . . , & / 7 * = ~ < } : : / & ; % % | _ / } ) < ] ) ' ) ] 4 { 3 8 4 ] ] 6 6 6 6 6 6 6 6 6 6 ] 4 < . . . . . . . . . ",
". 4 @ 9 ' | 0 _ * * $ $ ^ ! 5 ] ~ 4 3 ~ ) } ^ = $ : 3 6 a 3 : ' < 5 6 6 6 6 6 6 6 6 b c 6 d d d d 5 6 e f g h 4 [ [ ) . . . . . ",
"9 9 9 9 9 , , ' ' $ & $ : [ ) ! [ [ 3 5 c 6 3 5 ~ { ! ~ [ 6 6 6 6 6 3 { 3 6 3 ~ d d d d d d d d d d d 8 i j d k e . . . [ [ 9 9 ",
"9 9 9 9 9 9 ( * & % & & * ^ } < < < ! { [ ] { ~ 6 6 6 6 6 ( _ ( $ ' = } d d d d d d d d d d d d d d [ [ 6 6 6 . . . 6 6 ! [ ^ 9 ",
"9 9 9 9 & : [ ' ' = } ' ( $ * * = ~ [ [ 6 6 6 6 6 6 6 l l m l l l l n d d d % % % % % % % % d 6 6 6 6 6 ^ . . . 6 6 6 6 < 9 9 9 ",
"( = ' ' < ] 4 : ~ ] 3 < ' [ < ) 6 6 6 6 5 6 6 ' ] 6 l o p q p r s o t u % % % % % % % d 6 6 v 6 6 6 6 6 . 6 ' & ( / < { { 9 9 < ",
"= = = ) { 4 4 ] ! = = = $ 6 6 6 < ! 6 ] 6 } = ~ % l l w x y x z z A B C D % % % % % % % % % % % % % % % % % % % % % % & : 8 = = ",
"= = = = = = 5 [ ^ < 6 6 6 ~ 6 6 6 6 6 6 6 6 6 % % l D E F y G H z I A J t l % % % 6 6 6 6 % % % 6 6 6 6 { ! { ] [ % = % = = = = ",
"= = = ( / { 6 6 6 6 6 6 6 6 < ! { 6 6 6 6 6 6 6 6 K K L M N O q P Q w P R S S % % % % % % % 6 6 6 6 6 T ^ : ^ ) ) = = = = = = = ",
"* & 6 6 6 6 6 6 = } = 6 6 6 6 6 6 6 6 6 6 6 U U U U U U U U V U U W l r I X Y D 6 6 6 6 6 6 6 6 6 6 % % % % [ ^ ^ % = $ ; , % % ",
"6 6 $ 6 6 6 6 6 6 6 6 6 6 6 6 6 6 6 6 v v U U U U U U U Z U U U U `  ...J A Q t +.@.6 6 6 % % % % % % % 6 6 % % 6 % #.* $ $ 6 6 ",
"6 6 6 6 6 6 ^ ~ ~ c 6 6 6 6 ) 6 v v v v v U U U U U U U $.` $.U Z $.` W S w Q X D l % % % % % % % % % % % % % 6 % % %.} [ 6 6 6 ",
"6 6 6 6 &.*.< 6 6 6 6 6 6 v v v v v v v v =.U U U U $.U W l W U U W l W ` l -.B ;.;.% % % % % % % % % % % % % % % % % % 6 6 6 6 ",
"6 6 &.*.3 6 6 5 a a v v v v v v v v v v v >.Z U ` U U U ` ;. .$.Z  .K  . .l -.R S S % % % % % % % % % % % % % % % % % % 6 6 6 6 ",
"] &.,.{ 6 v v v v v v v v v v v v v v v v v '.$.m ` V U U U U U U U U W l ;.S B R R ;.% % % % % % % % % % % % % % % % 6 6 6 6 6 ",
"' ' ) 6 6 v v 6 6 v v v v v 6 6 6 6 v v v v v v U ).!.~.{.].^.U U U U U U U ` D B /.D % % % % % % % % % % % 6 6 6 6 6 6 % & > 6 ",
"6 (.f v 6 6 6 6 6 ] v 6 6 6 6 6 6 v v 6 6 6 6 6 U ).!._.{.].{.U Z Z Z U U U ` ;././.l 6 6 % % % % % % 6 6 6 6 6 6 6 6 6 ; ' ' ' ",
"a 6 6 6 6 6 6 6 6 6 6 6 6 6 6 6 6 6 6 6 6 6 6 6 U U $.:.<.Z U ~.[.{.U $.U $.` l X R l 6 % % % 6 6 6 6 6 6 6 6 6 6 6 ' ' ' 6 6 6 ",
"' ' ' ' ' ' ' 6 6 6 6 6 6 6 6 6 6 6 6 6 6 6 6 6 v }.}.|.1.}.}.2.!.3.).4.U U U ` -.-.l % 6 6 6 6 6 6 6 6 6 6 ' ' ' ' 6 6 ' ' ' ' ",
"' ' ' ' 6 6 6 6 6 6 6 6 6 6 6 6 6 5.5.5.5.5.5.5.5.6.6.7.8.9.9.7.0.0.!.{.U Z V U ;.;.l 6 6 6 6 6 6 6 6 6 6 ' ' ' ' ' ' ' ' ' ' ' ",
"6 6 6 6 6 6 6 6 6 6 6 6 6 5.5.5.5.5.5.5.5.5.5.5.5.a.U b.c.U d.e.f.g.[.<.U U h.i.!.].j.6 6 6 6 6 6 6 6 6 6 6 6 6 6 6 6 6 6 6 6 6 ",
"6 6 6 6 6 6 6 6 6 6 6 5.5.5.6 6 6 5.5.5.5.k.l.l.m.n.U b.c.U o.8.p.g.[.<.U U h.q.r.r.s.6 6 6 6 6 6 6 6 6 6 6 6 6 6 6 6 6 6 6 6 6 ",
"6 6 6 6 6 6 6 6 6 6 6 6 6 6 6 6 5.5.6 6 6 k.l.f.6.h.U t.c.U d.e.f.g.0.u.U U h.p.v.v.].6 6 6 6 6 6 6 6 6 6 6 6 6 6 6 6 6 6 6 6 6 ",
"3 6 6 6 6 6 6 6 6 6 6 6 6 6 6 6 6 6 6 6 6 k.f.l.7.2.b.w.H ).w.x.i.o.~.y.U U z.s.A.A.!.6 6 6 6 6 6 6 6 6 6 6 6 6 6 6 6 6 6 6 6 6 ",
"6 6 6 6 6 6 6 6 6 6 6 6 6 6 6 6 6 6 6 6 6 v.f.f.i.f.f.s.!.!.g.l.i.c.Z U V U ~.!.B.k.].6 6 6 6 6 6 6 6 6 6 6 6 6 6 6 6 6 6 6 6 6 ",
"6 6 6 6 6 6 6 6 6 6 6 6 6 6 6 6 6 6 6 5.5.C.s.s.s.D.D.E.F.~.h.G.p.1.t.H._.:.3.!.3.H I.6 6 I.I.6 6 6 6 6 6 6 6 6 6 6 6 6 6 6 6 6 ",
"6 6 6 6 6 6 6 6 6 6 6 6 6 6 6 6 6 6 5.5.5.J.{.^.u.{.K.L.y.$.$.M.N.O.g.P.<.{.u.^.{.{.6 I.I.6 6 6 6 6 6 6 6 6 6 6 6 6 6 6 6 6 6 6 ",
"6 6 6 6 6 6 6 6 6 6 6 6 6 j j j j j j j j U U U U Z U U U U U U Z u.!.!.:.U U U U U I.I.I.6 6 6 6 6 6 6 6 6 6 6 6 6 6 6 6 6 6 6 ",
"6 6 6 6 6 6 6 j j j j j j j j j j j j j j Q.$.U V $.U Z Z U H.b.b.R.[.3.S.Q.Q.Q.P T.l I.I.f f f f f f f f f f f 6 6 6 6 6 6 6 6 ",
"6 6 6 j j j j j j j j j j j j j j j j v.E.M L.J.L.G.c.c.c.c.b.q.g.R.r.U.V.V.V.M W.W.l I.I.I.I.I.I.f f f f f f f f f f f f 6 6 6 ",
"f f f f f f f j j j j j j j j j j j j C.X.6.A.v.B.1.p.l.q.f.f.|.[.).A.Y.9.6.m.6.Z.`.l I.I.I.I.f f f f f f f f f f - - - - f f f ",
"j j j j j 6 6 6 6 j j j j j j j j j  +M 1.6.`.k.M U.U.U..+P.P.E.++U.M @+6.6.6.m.M M #+I.I.I.- - - - - - - - - - - - - - j j j j ",
"j 6 $+6 6 6 %+j j j j j j j j j j j A.6.6.6.E.X.@+E.&+&+F.*+*+4.Z.M 6.6.9.6.9.9.9.6.A.- - - - - - - - - - - - - - - - - - j j j ",
"6 6 6 6 6 j j j j j j j j j j j j j A.6.m.6.9.6. +=+-+-+;+>+,+'+Z.)+6.6.6.9.6.9.9.6.A.!+!+!+!+!+- - - - - - - f f f f 6 j j 6 6 ",
"6 6 6 j j j j j j j j j j j j j j j  +@+~+6.{+{+]+=+I E ^+/+(+_+]+O.:+<+9.6.m.6.@+@+S.!+!+!+!+!+- - - - - - - - - - - - 6 6 6 6 ",
"[+6 j j j j j j j j j j j j j j j j j `.X.6.}+}+/./.J |+1+2+c.3+X 4+C.M 6.6.9.6.`.k.!+!+!+!+!+- - - - - - [+[+[+[+[+[+[+[+[+[+[+",
"6 6 6 j j j j j j j j j j j j j j j j j 5+B.6+6+;.;.D 7+8+9+0+l l D l #+B.a+k.C.!+!+- - - - - - - - - - [+- - - - - - - - 6 6 6 ",
"6 6 j j j j j j j j j j j j j j j j j 5+5+q b+b+c+c+d+L e+e+f+c+c+4.z.g+G.h+i+g+!+!+!+- - - - - - - - - - - - 6 6 6 6 6 6 6 6 6 ",
"k k j j j j j / / / / j j j j j j j j U L.y a+A.j+8+k+j.9.9.l+m+9+n+o+o+p+p+q+r+6 - - !+- - - - - - - - - - - - - - - - - 4 6 6 ",
"/ / k k k k k k j j j j j j j j j j U U V U v.v.s+t+k+j.9.9.l+m+m+u+6+o+q+>+v+w+- - - - - - - - - - - - - - - - - - - - ~ 6 : / ",
"/ / / / / / / / / / j j j j j 6 j j U U U U k.`.1+t+m+x+6.6.l+m+m+u+p+}+q+y+z+A+- - - - - - - - - - - - - - - - - - - } 6 = / / ",
"j j 6 j j j j j j j j j j 6 j j j j U U U U k.A.`.B+9+8+8+8+8+k+m+n+p+p+q+r+>+z+Z Z 6 6 6 6 - - - - - - - - - - - - - - - - - - ",
"- - - - - - - - j j j 6 j j j j j 5+U U U U C.`.A.C+D+E+j+9+F+G+G+s+}+q+H+w+z+v+Q.Q.$.6 - - - I+I+I+I+I+I+I+I+I+I+I+I+I+I+I+- - ",
"c J+K+L+j j j 6 - - - - j 6 6 6 6 - U U U U B.A.`.'+A+n+m+m+u+s+o+o+p+D+A+w+w+>+k.k.U 6 6 6 6 6 6 - - 6 I+I+I+I+I+I+I+6 6 6 6 6 ",
"6 6 j j j 6 6 6 6 6 6 6 6 6 6 6 6 6 U U U U C.C.y.M+w+N+G+k+n+2+/+H+/+H+w+y+'+O+ +`.U 6 6 I+I+I+I+I+I+I+6 6 6 6 6 6 6 6 6 6 6 6 ",
"P+j j 6 6 6 ~ 6 6 6 6 6 6 6 6 6 6 6 U U U U L.J.$.M+w+w+2+2+2+/+Q+,+w+,+R+S+H.v.B.k.U 6 I+I+I+I+I+I+I+I+I+I+I+I+I+6 6 6 6 6 6 6 ",
"6 6 6 T+U+V+6 j j W+6 6 6 6 6 6 6 6 U U U U Z Z 6 6 6 6 w+A+,+Q+,+Q+w+z+_+ +C.B.C.`.U I+I+I+I+I+I+I+I+I+I+I+I+I+6 6 I+I+I+I+I+6 ",
"5 4 X+Y+Z+6 j j `+6 6 6 6 6 6 6 6 6 6 U U U 6 6 6 6 6 6 6 - ,+Q+,+,+>+>+6 M.n.G A.`.U I+I+I+I+I+I+I+I+I+I+I+I+I+I+I+I+6 6 6 6 5 ",
"5 5 5  @j j &..@+@6 6 6 6 6 6 6 6 6 6 @@#@U 6 6 6 6 6 6 6 6 6 w+w+w+w+- - Z $@h+L.L.U I+I+I+I+I+I+I+I+I+I+I+I+I+I+I+6 6 5 5 5 5 ",
"{ i 6 j j %@5 &@6 6 6 6 6 6 6 6 6 6 6 6 6 6 6 6 6 6 6 6 6 6 6 6 - - - - - - - U U U - I+I+I+I+I+I+I+I+I+I+I+I+I+I+5 5 5 5 5 5 5 ",
"$ ! 6 6 6 6 6 6 6 6 6 6 6 6 6 6 6 6 6 6 6 6 6 6 6 6 6 6 - - - - - - - - - - - $.U U - - - - - - - - - - - I+I+I+5 5 5 5 I+$ $ $ ",
"$ 1 6 6 6 6 6 6 6 6 *@6 6 6 6 6 6 6 6 6 6 6 6 6 6 6 6 6 6 6 - - - - - - - - - - - - - - - - - - - - - I+I+I+I+I+I+$ $ $ $ $ $ $ ",
"$ $ ^ / ~ 6 6 6 6 6 6 6 6 =@6 6 6 6 6 6 6 6 6 6 6 6 6 6 - - - - - - - - - - - - - - - - - - - - I+I+I+I+I+I+I+I+I+I+I+I+I+$ $ $ ",
"_ $ _ ( < 6 6 6 6 6 6 6 6 6 6 6 6 6 6 6 6 6 6 6 6 6 6 6 - - - - - - - - - - - - - - - - - - - - - - - - I+I+I+I+I+( ( ( ( ( ( ( ",
"( ] } ) 6 6 [ -@;@>@,@'@6 6 6 6 6 6 6 6 6 6 6 6 6 6 6 6 6 - - - - - - - - - - & & - - - - - - - - - - - - I+I+I+I+( ( ( ( ( ( ( ",
"( ( )@!@~@@ {@]@^@/@(@_@:@6 6 6 6 6 6 6 6 6 6 6 - - # # # # # - - - - - - - - - & & & & - - - - - - - - - - I+I+I+I+I+( ( ( ( ( ",
"( ( ( <@[@}@|@1@2@3@3@4@5@6 6 6 6 6 6 6 6 6 6 6 6 # # # # - - - - - - & & & & & - - - & & & & & - - - - - - - - 6@6@6@6@6@6@6@6@",
"6@7@8@9@0@a@b@c@d@- - - - - - @ @ 6 6 6 6 - - # # # # - - - - - - - - - - & & & & & & & & & & - & & & - - - - - I+6@6@6@6@6@6@6@",
"  e@f@g@h@i@j@k@ @l@m@. . @ @ @ - - - # # # # # # # & - - - - - - - - - & & & & & & & & & - & & & - - & & & - - -               ",
"      n@o@p@. . . . . q@@ @ @ # # # # # # # & & & & ( - - - - - - - & & & & & & & & & & & & & & & & & & & & & & ^ ^             "};
