/* XPM */
static char * SOLONG Ground_xpm[] = {
"64 64 166 2",
"  	c #000018",
". 	c #000019",
"+ 	c #00001A",
"@ 	c #000017",
"# 	c #000021",
"$ 	c #00002C",
"% 	c #000135",
"& 	c #000136",
"* 	c #00002D",
"= 	c #00002B",
"- 	c #000024",
"; 	c #00001F",
"> 	c #00001E",
", 	c #00001D",
"' 	c #00001C",
") 	c #00001B",
"! 	c #000015",
"~ 	c #000016",
"{ 	c #000026",
"] 	c #000028",
"^ 	c #000029",
"/ 	c #00002A",
"( 	c #000022",
"_ 	c #000020",
": 	c #000025",
"< 	c #000027",
"[ 	c #000023",
"} 	c #000132",
"| 	c #000133",
"1 	c #000130",
"2 	c #000014",
"3 	c #000013",
"4 	c #00002E",
"5 	c #000030",
"6 	c #000120",
"7 	c #00002F",
"8 	c #000012",
"9 	c #000032",
"0 	c #000033",
"a 	c #000031",
"b 	c #000147",
"c 	c #000139",
"d 	c #00013D",
"e 	c #00013E",
"f 	c #000036",
"g 	c #000140",
"h 	c #000134",
"i 	c #000145",
"j 	c #00013F",
"k 	c #000037",
"l 	c #00024A",
"m 	c #000141",
"n 	c #000137",
"o 	c #00012E",
"p 	c #000125",
"q 	c #030025",
"r 	c #000138",
"s 	c #00012A",
"t 	c #00012D",
"u 	c #000131",
"v 	c #0A0357",
"w 	c #00013B",
"x 	c #02013F",
"y 	c #0D0248",
"z 	c #100252",
"A 	c #00013C",
"B 	c #08024E",
"C 	c #020139",
"D 	c #050253",
"E 	c #1B0459",
"F 	c #1B0454",
"G 	c #020138",
"H 	c #10034E",
"I 	c #050143",
"J 	c #06013F",
"K 	c #12024F",
"L 	c #1F055F",
"M 	c #050137",
"N 	c #03013B",
"O 	c #040248",
"P 	c #01013D",
"Q 	c #030145",
"R 	c #050247",
"S 	c #020134",
"T 	c #370555",
"U 	c #1C0247",
"V 	c #040247",
"W 	c #0B0247",
"X 	c #2E0560",
"Y 	c #020137",
"Z 	c #05013D",
"` 	c #04002F",
" .	c #010135",
"..	c #190245",
"+.	c #030135",
"@.	c #020025",
"#.	c #07013A",
"$.	c #130244",
"%.	c #0A024C",
"&.	c #09024F",
"*.	c #0C0140",
"=.	c #05013E",
"-.	c #010029",
";.	c #020029",
">.	c #01002D",
",.	c #010137",
"'.	c #040130",
").	c #02002C",
"!.	c #02013B",
"~.	c #14035A",
"{.	c #0B024B",
"].	c #05013B",
"^.	c #1A0243",
"/.	c #170354",
"(.	c #0F0249",
"_.	c #0B0144",
":.	c #15024D",
"<.	c #1B0250",
"[.	c #210357",
"}.	c #0F0245",
"|.	c #260352",
"1.	c #0F013E",
"2.	c #050136",
"3.	c #2F0458",
"4.	c #1C0354",
"5.	c #070143",
"6.	c #05013F",
"7.	c #0C0143",
"8.	c #110249",
"9.	c #170247",
"0.	c #0F0144",
"a.	c #16024B",
"b.	c #09013B",
"c.	c #20035A",
"d.	c #14024C",
"e.	c #2A0459",
"f.	c #210354",
"g.	c #1A0249",
"h.	c #2B0356",
"i.	c #0A0144",
"j.	c #160249",
"k.	c #09013E",
"l.	c #010036",
"m.	c #2B024E",
"n.	c #150250",
"o.	c #1D0356",
"p.	c #350771",
"q.	c #33066F",
"r.	c #250459",
"s.	c #3C066B",
"t.	c #2E0562",
"u.	c #2A0456",
"v.	c #340663",
"w.	c #130245",
"x.	c #0E0242",
"y.	c #050139",
"z.	c #04013B",
"A.	c #03002B",
"B.	c #27034C",
"C.	c #310455",
"D.	c #410B66",
"E.	c #13023E",
"F.	c #0F013A",
"G.	c #02012A",
"H.	c #170252",
"I.	c #140251",
"  . + +   @   # $ % & * = - ; > , ' + , , , > > # ) + + @ !   ~ @ ' ; # { ] ^ ^ / = / ] ] ( ( ( , > ; > _ ( { { : { < : [ # # ( ",
"  . + , # - ] } | 1 $ [ > ' + > ; _ ( , , , , ) @ 2 @ . @ @ + . ' # - ( ( ] / / / = ] : { < ] - # , ; _ [ [ - [ # ( : - # > _ # ",
"@ + # ] : : { ^ < ( > ' , > ' ' ; ; + ~   + )   ! 3 !   . ) ) ' _ [ { - ( < ] ^ ^ ^ { - = / ^ < ^ : [ [ - ] ] : ( # [ # # , _ : ",
"  _ = / > @ . , + ' ' # ; , ' ; [ _ .     @ +   2 ~ . + + , ( [ # { $ * ] < ] / / ] / * / ^ 4 $ 5 5 5 { { < < ] - [ [ > ; , > # ",
"  ( 5 5 [ ~ 3 ! @ , _ 6 > # ^ : [ - - _ ,   + + ! . _ [ { : = { ; { = * / $ 7 * = = 5 5 5 5 5 5 5 5 5 5 = * : ] [ ; [ : { ; > ; ",
"> * | 4 ; ! 8 . > > ' ' ( ] 4 = ^ * $ ^ { [ ( # ' - $ 5 9 $ - ; : 4 5 5 5 5 5 5 5 5 0 a 5 b b b b 4 5 c d e f * < < { < / < [ [ ",
"e g 5 ] , @ @ ; ; ' , ' - < { ] < < $ 4 a 5 $ 4 ^ / ] ^ < 5 5 5 5 5 $ / $ 5 $ ^ b b b b b b b b b b b 7 h i b j c k * ^ < < : < ",
"i l a { + . ) > , + , , > ( [ : : : ] / < = / ^ 5 5 5 5 5 ) . ) ' ; # [ b b b b b b b b b b b b b b < < 5 5 5 5 5 5 5 5 ] < ( : ",
"{ 9 - _ , - < ; ; # [ ; ) ' > > # ^ < < 5 5 5 5 5 5 5 ( > b b b b b b b b b + + + + + + + + b 5 5 5 5 5 ( ] 5 5 5 5 5 5 : - # > ",
") # ; ; : = * - ^ = $ : ; < : { 5 5 5 5 4 5 5 ; = 5 < # b + + + + + + + + + + + + + + b 5 5 m 5 5 5 5 5 5 5 ; , ) _ : / / * / : ",
". # { { / * * = ] # # # ' 5 5 5 : ] 5 = 5 [ # ^ + + + + + + + + + + + + + + + + + + + + + + + + + + + + + + + + + + + , - 7 n h ",
") ( ^ ( < o 4 < ( : 5 5 5 ^ 5 5 5 5 5 5 5 5 5 + + + + m + + + p + + + + + + + + + 5 5 5 5 + + + 5 5 5 5 / ] / = < + # + @ > * $ ",
"[ { ( ) _ / 5 5 5 5 5 5 5 5 : ] / 5 5 5 5 5 5 5 5 m m m + + + + 5 5 + + + + + + + + + + + + 5 5 5 5 5 q ( - ( { { + / - [ - < { ",
"> , 5 5 5 5 5 5 # [ # 5 5 5 5 5 5 5 5 5 5 5 m m m m h r % m m m 5 5 5 5 5 5 5 5 5 5 5 5 5 5 5 5 5 5 + + + + < ( ( + # '   @ + + ",
"5 5 ' 5 5 5 5 5 5 5 5 5 5 5 5 5 5 5 5 m m m m m m m m m m m m 5 5 5 5 5 5 m 5 5 5 5 5 5 5 + + + + + + + 5 5 + + 5 + s > ' ' . ) ",
"5 5 5 5 5 5 ( ^ ^ a 5 5 5 5 { 5 m m m m m m m m m m m m m m 5 5 5 m m 5 5 5 5 5 m 5 + + + + + + + + + + + + + 5 + + t [ < [ > ' ",
"; ' # $ } 1 : 5 5 5 5 5 5 m m m m m m m m m m m m m m m m 5 m m m m 5 5 m m m m + + + + + + + + + + + + + + + + + + + + + + + + ",
"_ 4 } 1 $ 5 5 4 9 9 m m m m m m m m m m m m m m m m m m m m m m m 5 m m m m + + + + + + + + + + + + + + + + + + + + + + + : 5 ) ",
"= } u / 5 m m m m m m m m m m m m m m m m m m m m m m e 5 5 m m m m m m + + + + + + + + + + + + + + + + + + + + + + + 5 5 5 5 5 ",
"> ; { 5 5 m m 5 5 m m m m m 5 5 5 5 m m m m m m m m v m m m m m m 5 m m + + + + + + + + + + + + + + + + + + 5 5 5 5 5 5 + , ~ 5 ",
"5 w d m 5 5 5 5 5 = m 5 5 5 5 5 5 m m 5 5 5 5 5 5 5 5 5 m m m v m m v + + + + + + + + 5 5 + + + + + + 5 5 5 5 5 5 5 5 5   5 5 5 ",
"9 5 5 5 5 5 5 5 5 5 5 5 5 5 5 5 5 5 5 5 5 5 5 5 5 5 5 5 5 v m m m + + + + 5 + 5 + + 5 5 + + + 5 5 5 5 5 5 5 5 5 5 5 5 5 5 5 5 5 ",
"5 5 5 5 5 5 5 5 5 5 5 5 5 5 5 5 5 5 5 5 5 5 5 5 m m v m m m m v v m + 5 5 5 5 + + 5 5 + 5 5 5 5 5 5 5 5 5 5 5 5 5 5 5 5 5 5 5 5 ",
"u 5 5 5 5 5 5 5 5 5 5 5 5 5 5 5 5 v v v v v v v v v m m v m v v v m v v 5 m 5 + 5 5 5 5 5 5 5 5 5 5 5 5 5 5 5 5 5 5 5 5 5 5 5 5 ",
"w 5 5 5 5 5 5 5 5 5 5 5 5 v v v v v v v v v v v v m 5 v m v v v v 5 m m m + 5 5 5 5 5 5 5 5 5 5 5 5 5 5 5 5 5 5 5 5 5 5 5 5 5 5 ",
"5 5 5 5 5 5 5 5 5 5 5 v v v 5 5 5 v v v v 5 5 5 5 5 v m v v v m m m m m 5 5 5 5 5 5 5 5 5 5 5 5 5 5 5 5 5 5 5 5 5 5 5 5 5 5 5 5 ",
"5 5 5 5 5 5 5 5 5 5 5 5 5 5 5 5 v v 5 5 5 5 5 5 5 v m v v m m 5 _ > : 5 5 5 5 5 5 5 5 5 5 5 5 5 5 5 5 5 5 5 5 5 5 5 5 5 5 5 5 5 ",
"$ 5 5 5 5 5 5 5 5 5 5 5 5 5 5 5 5 5 5 5 5 5 5 v v m v m m 5 5 5 - 5 5 5 5 5 5 5 5 5 5 5 5 5 5 5 5 5 5 5 5 5 5 5 5 5 5 5 5 5 5 5 ",
"5 5 5 5 5 5 5 5 5 5 5 5 5 5 5 5 5 5 5 5 5 v v v m m m 5 n & x 5 5 5 5 5 x x x 5 5 5 5 5 5 5 5 5 5 5 5 5 5 5 5 5 5 5 5 5 5 5 5 5 ",
"5 5 5 5 5 5 5 5 5 5 5 5 5 5 5 5 5 5 5 v v v v 5 m 5 5 5 5 x x x x x x x x x 5 x x x x 5 5 x x 5 5 5 5 5 5 5 5 5 5 5 5 5 5 5 5 5 ",
"5 5 5 5 5 5 5 5 5 5 5 5 5 5 5 5 5 5 v v v 5 i i i i i i x x x x x x x x x x x x x x 5 x x 5 5 5 5 5 5 5 5 5 5 5 5 5 5 5 5 5 = / ",
"5 } 5 5 5 5 5 5 5 5 5 5 5 i i i i i i i i i i i i i x x x x x x x x x x x x x x x x x x x 5 5 5 5 5 5 5 d d d d d d d d d d d d ",
"5 5 5 5 5 5 5 i i i i i i i i i i i i i i i i i i i x i x x x x x x x x x x x x x x x x x d d d d d d d d d d d d d d d d d d d ",
"5 5 5 i i i i i i i i i i i i i i i i i i i i i x x x x x x x x x x x x x x x x x x x x x x x x x d d d d d d d d d d d d d d d ",
"i i i i i i i i i i i i i i i i i i i i x x x x x x x x x x x x x x x x x x x x x x x x x x x d d d d d d d d d d y y y y d d d ",
"i i i i i 5 5 5 5 i i i i i i i i i i i x x x x z x x x x x x x x x x x x x x x x x x x x x y y y y y y y y y y y y y y y y y y ",
"i 5 A 5 5 5 B i i i i i i i i i i i i i i i i z x x x x x z z z z z x x x x y y y y y y y y y y y y y y y y y y y y y y y y y y ",
"5 5 5 5 5 i i i i i i i i i i i i i i i i i z z i z z z z z z z z x x x x x x x x C C C C C C C y y y y y y y d d d d d d d 5 & ",
"5 5 5 i i i i i i i i i i i i i i i i i i i i z z z z z z z z z z z z z z 5 5 C C C C C C C C C y y y y y y y y y y y y y y y y ",
"D 5 i i i i i i i i i i i i i i i i i i i i z z z z z z z z z z z z z 5 C C C C C C C C C C C y y y y y y y y y y y y y y y y y ",
"5 5 5 i i i i i i i i i i i i i i i i i z z z z i z z z z z z z z / 5 E C C C C C C y y y y y y y y y y y y y y y y y y y y y y ",
"5 5 i i i i i i i i i i i i i i i i i z z z i i z z z z z z z z z C C C C C C C C C C y y y y y y y y y y y y y y y y y y y y y ",
"j i i i i i i i i i i i i i i i i i i z i i i z z z z z z z z z C 5 5 C C F G 5 5 y y C y y y y y y y y y y y y y y y y y * 5 5 ",
"A i i i i i i i i i i i i i i i i i i i i z z z z z z z z 5 5 5 5 5 5 5 y y y y y y y y y y y y y y y y y y y y y y y y ^ 5 - _ ",
"i i i i i i i i i i i i i i i 5 i i i i z z z y y y y y y y y y y y y y y y y y y y y y y y y y y y y y y y y y y y y [ 5 # _ # ",
"i i 5 i i i i i i i i i i 5 i i i i z z z z y y y y y y y y y y y y y y y 5 5 5 5 5 5 5 5 5 y y y y y y y y y y y y y y y y y y ",
"i i i H n i i i i i i 5 i i i i i z z y y y y y y y y y y y y y y y y 5 5 5 5 5 5 5 5 5 y y y I I I I I I I I I I I I I I I I I ",
"a J K L i i i 5 i i i i i 5 5 5 5 y 5 y 5 5 5 y y y y y M 5 5 5 5 5 5 5 5 5 5 5 5 5 5 5 5 5 5 5 5 y y I I I I I I I I I I I I 5 ",
"5 5 i i i 5 5 5 5 5 5 5 5 5 5 5 5 5 5 5 5 5 5 5 5 5 5 5 5 5 5 5 5 5 5 5 5 5 5 5 5 5 5 5 5 I I I I I I I I I I I I I I I I I I I ",
"N i i 5 5 5 ^ 5 5 5 5 5 5 5 5 5 5 5 5 5 5 5 5 5 5 5 5 5 5 5 5 5 5 5 5 5 5 5 5 5 5 5 5 5 I I I I I I I I I I I I I I I I I I I I ",
"5 i 5 O P Q 5 i i R 5 5 5 5 5 5 5 5 5 5 5 5 5 5 5 5 5 5 5 5 5 5 5 5 5 5 5 5 5 I I I I I I I I I I I I I I I I I I I I I I I I I ",
"5 * S T U 5 i i V 5 5 5 5 5 5 5 5 5 5 5 5 5 5 5 5 5 5 5 5 y y y y y 5 5 5 5 5 5 5 5 y I I I I I I I I I I I I I I I I I I I I I ",
"h 4 W X i i } Y Z 5 5 5 5 5 5 5 5 5 5 5 5 5 5 5 5 5 5 5 5 5 5 5 y y y y y y y y y y y I I I I I I I I I I I I I I I I I I I I I ",
"/ h 5 i i ` 4  .5 5 5 5 5 5 5 5 5 5 5 5 5 5 5 5 5 5 5 5 5 5 5 5 y y y y y y y y y y y I I I I I I I I I I I I I I I I I I I I I ",
"_ ] 5 5 5 5 5 5 5 5 5 5 5 5 5 5 5 5 5 5 5 5 5 5 5 5 5 5 y y y y y y y y y y y y y y y y y y y y y y y y y I I I I I I I I I I I ",
"  3 5 5 5 5 5 5 5 5 ..5 5 5 5 5 5 5 5 5 5 5 5 5 5 5 5 5 5 5 y y y y y y y y y y y y y y y y y y y y y I I I I I I I I I I I I I ",
"  > ( _ ^ 5 5 5 5 5 5 5 5 +.5 5 5 5 5 5 5 5 5 5 5 5 5 5 y y y y y y y y y y y y y y y y y y y y I I I I I I I I I I I I I I I I ",
". ' . ) : 5 5 5 5 5 5 5 5 5 5 5 5 5 5 5 5 5 5 5 5 5 5 5 y y y y y y y y y y y y y y y y y y y y y y y y I I I I I I I I I I I I ",
"@.= [ { 5 5 < #.$.%.&.*.5 5 5 5 5 5 5 5 5 5 5 5 5 5 5 5 5 y y y y y y y y y y y y y y y y y y y y y y y y I I I I I I I I I I I ",
"=.-.;.>.,.-.'.).!.~.{.].^.5 5 5 5 5 5 5 5 5 5 5 y y y y y y y y y y y y y y y y y y y y y y y y y y y y y y I I I I I I I I I I ",
"/.(._.:.<.[._.}.|.1.1.2.3.5 5 5 5 5 5 5 5 5 5 5 5 y y y y y y y y y y y y y y y y y y y y y y y y y y y y y y y y I I I I I I I ",
"4.5.6.7.8.9.0.a.b.y y y y y y y y 5 5 5 5 y y y y y y y y y y y y y y y y y y y y y y y y y y y y y y y y y y y I I I I I I I I ",
"c.d.e.f.g.h.i.j.X k.l.y y y y y y y y y y y y y y y y y y y y y y y y y y y y y y y y y y y y y y y y y y y y y y y y y y y y m.",
"n.o.p.q.r.s.t.u.v.w.x.y.z.-.A.B.C.D.y y y y y y y y y y y y y y y y y y y y y y y y y y y y y y ;.E.F.G.y y y y y H.|.I.y y y y "};
