/* XPM */
static char * SOLONG Exit_xpm[] = {
"64 64 175 2",
"  	c None",
". 	c #000018",
"+ 	c #000019",
"@ 	c #00001A",
"# 	c #000017",
"$ 	c #000021",
"% 	c #00002C",
"& 	c #000135",
"* 	c #000136",
"= 	c #00002D",
"- 	c #00002B",
"; 	c #000024",
"> 	c #00001F",
", 	c #00001E",
"' 	c #00001D",
") 	c #00001C",
"! 	c #00001B",
"~ 	c #000015",
"{ 	c #000016",
"] 	c #000026",
"^ 	c #000028",
"/ 	c #000029",
"( 	c #00002A",
"_ 	c #000022",
": 	c #000020",
"< 	c #000025",
"[ 	c #000027",
"} 	c #000023",
"| 	c #000132",
"1 	c #000133",
"2 	c #000130",
"3 	c #000014",
"4 	c #000013",
"5 	c #00002E",
"6 	c #000030",
"7 	c #000120",
"8 	c #00002F",
"9 	c #000012",
"0 	c #000032",
"a 	c #000033",
"b 	c #000031",
"c 	c #000147",
"d 	c #000139",
"e 	c #00013D",
"f 	c #00013E",
"g 	c #000036",
"h 	c #000140",
"i 	c #000134",
"j 	c #000145",
"k 	c #00013F",
"l 	c #000037",
"m 	c #00024A",
"n 	c #000141",
"o 	c #000137",
"p 	c #00012E",
"q 	c #000125",
"r 	c #030025",
"s 	c #000138",
"t 	c #4CF335",
"u 	c #00012A",
"v 	c #00012D",
"w 	c #424A6D",
"x 	c #000131",
"y 	c #0A0357",
"z 	c #00013B",
"A 	c #424B72",
"B 	c #02013F",
"C 	c #555C7C",
"D 	c #0D0248",
"E 	c #636D9C",
"F 	c #100252",
"G 	c #00013C",
"H 	c #08024E",
"I 	c #020139",
"J 	c #050253",
"K 	c #828DBD",
"L 	c #1B0459",
"M 	c #1B0454",
"N 	c #020138",
"O 	c #10034E",
"P 	c #050143",
"Q 	c #06013F",
"R 	c #12024F",
"S 	c #1F055F",
"T 	c #050137",
"U 	c #B0B8DF",
"V 	c #626782",
"W 	c #03013B",
"X 	c #040248",
"Y 	c #01013D",
"Z 	c #030145",
"` 	c #050247",
" .	c #020134",
"..	c #370555",
"+.	c #1C0247",
"@.	c #040247",
"#.	c #0B0247",
"$.	c #2E0560",
"%.	c #020137",
"&.	c #05013D",
"*.	c #04002F",
"=.	c #010135",
"-.	c #190245",
";.	c #030135",
">.	c #020025",
",.	c #07013A",
"'.	c #130244",
").	c #0A024C",
"!.	c #09024F",
"~.	c #0C0140",
"{.	c #05013E",
"].	c #010029",
"^.	c #020029",
"/.	c #01002D",
"(.	c #010137",
"_.	c #040130",
":.	c #02002C",
"<.	c #02013B",
"[.	c #14035A",
"}.	c #0B024B",
"|.	c #05013B",
"1.	c #1A0243",
"2.	c #170354",
"3.	c #0F0249",
"4.	c #0B0144",
"5.	c #15024D",
"6.	c #1B0250",
"7.	c #210357",
"8.	c #0F0245",
"9.	c #260352",
"0.	c #0F013E",
"a.	c #050136",
"b.	c #2F0458",
"c.	c #1C0354",
"d.	c #070143",
"e.	c #05013F",
"f.	c #0C0143",
"g.	c #110249",
"h.	c #170247",
"i.	c #0F0144",
"j.	c #16024B",
"k.	c #09013B",
"l.	c #20035A",
"m.	c #14024C",
"n.	c #2A0459",
"o.	c #210354",
"p.	c #1A0249",
"q.	c #2B0356",
"r.	c #0A0144",
"s.	c #160249",
"t.	c #09013E",
"u.	c #010036",
"v.	c #2B024E",
"w.	c #150250",
"x.	c #1D0356",
"y.	c #350771",
"z.	c #33066F",
"A.	c #250459",
"B.	c #3C066B",
"C.	c #2E0562",
"D.	c #2A0456",
"E.	c #340663",
"F.	c #130245",
"G.	c #0E0242",
"H.	c #050139",
"I.	c #04013B",
"J.	c #03002B",
"K.	c #27034C",
"L.	c #310455",
"M.	c #410B66",
"N.	c #13023E",
"O.	c #0F013A",
"P.	c #02012A",
"Q.	c #170252",
"R.	c #140251",
". + @ @ . # . $ % & * = - ; > , ' ) @ ' ' ' , , $ ! @ @ # ~ . { # ) > $ ] ^ / / ( - ( ^ ^ _ _ _ ' , > , : _ ] ] < ] [ < } $ $ _ ",
". + @ ' $ ; ^ | 1 2 % } , ) @ , > : _ ' ' ' ' ! # 3 # + # # @ + ) $ ; _ _ ^ ( ( ( - ^ < ] [ ^ ; $ ' > : } } ; } $ _ < ; $ , : $ ",
"# @ $ ^ < < ] / [ _ , ) ' , ) ) > > @ { . @ ! . ~ 4 ~ . + ! ! ) : } ] ; _ [ ^ / / / ] ; - ( / [ / < } } ; ^ ^ < _ $ } $ $ ' : < ",
". : - ( , # + ' @ ) ) $ > ' ) > } : + . . # @ . 3 { + @ @ ' _ } $ ] % = ^ [ ^ ( ( ^ ( = ( / 5 % 6 6 6 ] ] [ [ ^ ; } } , > ' , $ ",
". _ 6 6 } { 4 ~ # ' : 7 , $ / < } ; ; : ' . @ @ ~ + : } ] < - ] > ] - = ( % 8 = - - 6 6 6 6 6 6 6 6 6 6 - = < ^ } > } < ] > , > ",
", = 1 5 > ~ 9 + , , ) ) _ ^ 5 - / = % / ] } _ $ ) ; % 6 0 % ; > < 5 6 6 6 6 6 6 6 6 a b 6 c c c c 5 6 d e f g = [ [ ] [ ( [ } } ",
"f h 6 ^ ' # # > > ) ' ) ; [ ] ^ [ [ % 5 b 6 % 5 / ( ^ / [ 6 6 6 6 6 % ( % 6 % / c c c c c c c c c c c 8 i j c k d l = / [ [ < [ ",
"j m b ] @ + ! , ' @ ' ' , _ } < < < ^ ( [ - ( / 6 6 6 6 6 ! + ! ) > $ } c c c c c c c c c c c c c c [ [ 6 6 6 6 6 6 6 6 ^ [ _ < ",
"] 0 ; : ' ; [ > > $ } > ! ) , , $ / [ [ 6 6 6 6 6 6 6 _ , c c c c c c c c c @ @ @ @ @ @ @ @ c 6 6 6 6 6 _ ^ 6 6 6 6 6 6 < ; $ , ",
"! $ > > < - = ; / - % < > [ < ] 6 6 6 6 5 6 6 > - 6 [ $ c @ @ @ @ @ @ @ @ @ @ @ @ @ @ c 6 6 n 6 6 6 6 6 6 6 > ' ! : < ( ( = ( < ",
"+ $ ] ] ( = = - ^ $ $ $ ) 6 6 6 < ^ 6 - 6 } $ / @ @ @ @ @ @ @ @ @ @ @ @ @ @ @ @ @ @ @ @ @ @ @ @ @ @ @ @ @ @ @ @ @ @ @ ' ; 8 o i ",
"! _ / _ [ p 5 [ _ < 6 6 6 / 6 6 6 6 6 6 6 6 6 @ @ @ @ n @ @ @ q @ @ @ @ @ @ @ @ @ 6 6 6 6 @ @ @ 6 6 6 6 ( ^ ( - [ @ $ @ # , = % ",
"} ] _ ! : ( 6 6 6 6 6 6 6 6 < ^ ( 6 6 6 6 6 6 6 6 n n n @ @ @ @ 6 6 @ @ @ @ @ @ @ @ @ @ @ @ 6 6 6 6 6 r _ ; _ ] ] @ ( ; } ; [ ] ",
", ' 6 6 6 6 6 6 $ } $ 6 6 6 6 6 6 6 6 6 6 6 n n n n i s & n n n 6 6 6 6 6 6 t 6 6 6 6 6 6 6 6 6 6 6 @ @ @ @ [ _ _ @ $ ) . # @ @ ",
"6 6 ) 6 6 6 6 6 6 6 6 6 6 6 6 6 6 6 6 n n n n n n n n n n n n 6 6 6 6 6 6 t t 6 6 6 6 6 6 @ @ @ @ @ @ @ 6 6 @ @ 6 @ u , ) ) + ! ",
"6 6 6 6 6 6 _ / / b 6 6 6 6 ] 6 n n n n n n n n n n n n n n 6 6 6 n n 6 6 t t t t t t t t t t @ @ @ @ @ @ @ @ 6 @ @ v } [ } , ) ",
"> ) $ % | 2 < 6 6 6 6 6 6 n n n n n n n n n n n n n n n n 6 n n n n t t t t t w w w w w w w w @ @ @ @ @ @ @ @ @ @ @ @ @ @ @ @ @ ",
": 5 | 2 % 6 6 5 0 0 n n n n n n n n n n n n n n n n n n n n n n t t w w t w t @ @ @ @ @ @ @ @ @ @ @ @ @ @ @ @ @ @ @ @ @ @ < 6 ! ",
"- | x ( 6 n n n n n n n n n n n n n n n n n n n n n n f 6 6 t t t w n t t @ t @ @ @ @ @ @ @ @ @ @ @ @ @ @ @ @ @ @ @ @ 6 6 6 6 6 ",
", > ] 6 6 n n 6 6 n n n n n 6 6 6 6 n n n n n n n n y t t t n n n 6 n t w @ t @ @ @ @ @ @ @ @ @ @ @ @ @ @ @ 6 6 t 6 6 6 @ ' { 6 ",
"6 z e n 6 6 6 6 6 - n 6 6 6 6 6 6 n n 6 6 6 6 6 6 6 t t n n n y n n t @ @ @ t @ @ @ @ 6 6 @ @ @ @ @ @ 6 6 6 6 6 t 6 6 6 . 6 6 6 ",
"0 6 6 6 6 6 6 6 6 6 6 6 6 6 6 6 6 6 6 6 6 6 6 6 t t 6 6 6 y n n n @ t @ @ 6 t 6 @ @ 6 6 @ @ @ 6 6 6 6 6 6 6 6 t 6 6 6 6 6 6 6 6 ",
"6 6 6 6 6 6 6 6 6 6 6 6 6 6 6 6 6 6 6 6 6 6 6 t t n y n n n n y y t @ 6 6 6 t @ @ 6 6 @ 6 6 6 6 6 6 6 6 6 6 6 t 6 6 6 6 6 6 6 6 ",
"x 6 6 6 6 6 6 6 6 6 6 6 6 6 6 6 6 y y y y y t y y y n n y n y y t t y y 6 n t @ 6 6 6 6 6 6 6 6 6 6 6 6 6 6 t t 6 6 6 6 6 6 6 6 ",
"z 6 6 6 6 6 6 6 6 6 6 6 6 y y y y y y y t t y y y n 6 y n y y y t 6 n n n @ t t 6 6 6 6 6 6 6 6 6 6 6 6 6 6 t 6 6 6 6 6 6 6 6 6 ",
"6 6 6 6 6 6 6 6 6 6 6 y y y 6 6 6 y y t y 6 6 6 6 6 y n y y y t n n n t t t t t t t t t t t t t t t t t t t t t t t t w 6 6 6 6 ",
"6 6 6 6 6 6 6 6 6 6 6 6 6 6 6 6 y y t 6 6 6 6 6 6 y t t t t t t t t t t 6 6 6 t 6 6 6 6 6 6 6 6 6 6 6 6 6 t 6 t t w w w 6 6 6 6 ",
"% 6 6 6 6 6 6 t t t t t t t t t t t t t t t t t t t t n n 6 t 6 ; 6 6 6 6 6 6 t 6 6 6 6 6 6 6 6 6 6 6 6 6 t t t w 6 6 6 6 6 6 6 ",
"6 6 6 6 6 6 6 6 t t 6 6 6 6 6 6 t A 6 6 6 y y y n n n 6 o t t 6 6 6 6 6 B B B t 6 6 6 6 6 6 6 6 6 6 6 t t t 6 6 6 6 6 6 6 6 6 6 ",
"6 6 6 6 6 6 6 6 6 t t t 6 6 6 t A 6 6 y y y y 6 n 6 6 6 6 t B B B B B B B B 6 t B B B 6 6 B B 6 6 t t 6 t 6 6 6 6 6 6 6 6 6 6 6 ",
"6 6 6 6 6 6 6 6 6 6 6 t t 6 t A 6 6 y y y 6 j j j j j j t t B B B B B B B B B t t B 6 B B 6 6 t t 6 6 t 6 6 6 6 6 6 6 6 6 6 - ( ",
"6 | 6 6 6 6 6 6 6 6 6 6 6 t A j j j j j j j j j j j B B t B B B B B B B B B B B t B B B B 6 t 6 6 6 6 t e e e e e e e e e e e e ",
"6 6 6 6 6 6 6 j j j j j t t t t j j j j j j j j j j B t B B B B B B B B B B B B t B B B t t e e e e t e e e e e e e e e e e e e ",
"6 6 6 j j j j j j j j j t C j t t j j j j j j j B B t t B B B B B B B B B B B B t B t t B B B B B e t e e e e e e e e e e e e e ",
"j j j j j j j j j j j t C j j j j t j j B B B B B B t B B B B B B B B B B B B B t t t B B B B e e e t e e e e e e D D D D e e e ",
"j j j j j 6 6 6 6 j j t E j j j j j t t B B B B F t B B B B B B B B B B B B B t t t B B B B D D D t w D D D D D D D D D D D D D ",
"j 6 G 6 6 6 H j j j t E j j j j j j j j t t j F t B B B B F F F F F B B B B t t D t D D D D D D t w D D D D D D D D D D D D D D ",
"6 6 6 6 6 j j j j j t E j j j j j j j j j t t F t F F F F F F F F B B B t t B B B t I I I I I t t D D D D D D e e e e e e e 6 * ",
"6 6 6 j j j j j j j t E j j j j j j j j j j j t t F F F F F F F F F F t t 6 6 I I t I I I I t t w D D D D D D D D D D D D D D D ",
"J 6 j j j j j j j t t E j j j j j j j j j j t F F t t F F F F F F t t 6 I I I I I t t I I t t w D D D D D D D D D D D D D D D D ",
"6 6 6 j j j j j j t K j j j j j j j j j F t F F j F t t F F F F t t 6 L I I I I I I t D t t w D D D D D D D D D D D D D D D D D ",
"6 6 j j j j j j j t K j j j j j j j j F t t j j F F F F t F t t t I I I I I I I I I t t t w D D D D D D D D D D D D D D D D D D ",
"k j j j j j j j j t K j j j j j j j j t t j j F F F F F F t t F I 6 6 I I M N 6 6 D t w w D D D D D D D D D D D D D D D D = 6 6 ",
"G j j j j j j j j t K j j j j j j j t t j F F F F F F t t 6 6 t t 6 6 6 D D D t t t t D D D D D D D D D D D D D D D D D / 6 ; : ",
"j j j j j j j j j t K j j j j 6 j j t j F F F D D t t D D D D D t t D D D D t w w w t D D D D D D D D D D D D D D D D } 6 $ : $ ",
"j j 6 j j j j j j t K j j 6 j j j j t F F F D t t D D D D D D D D t t t D t w w 6 6 t t 6 6 D D D D D D D D D D D D D D D D D D ",
"j j j O o j j j j j t K j j j j j t F D D t t t D D D D D D D D D w w t t 6 6 6 6 6 6 t D D D P P P P P P P P P P P P P P P P P ",
"b Q R S j j j 6 j j t K j 6 6 6 t t 6 D t t 6 D D D D D T 6 6 6 w t t 6 t t 6 6 6 6 6 t 6 6 6 6 6 D D P P P P P P P P P P P P 6 ",
"6 6 j j j 6 6 6 6 6 t t U 6 6 6 t 6 t t 6 6 6 6 6 6 6 6 6 6 6 V t t V 6 6 6 t t 6 6 6 t 6 P P P P P P P P P P P P P P P P P P P ",
"W j j 6 6 6 / 6 6 6 6 6 t U 6 t t t 6 6 6 6 6 6 6 6 6 6 6 V t t 6 6 6 6 6 6 6 6 t t 6 6 t P P P P P P P P P P P P P P P P P P P ",
"6 j 6 X Y Z 6 j j ` 6 6 6 t U t t 6 6 6 6 6 6 6 6 6 V t t t 6 6 6 6 6 6 6 6 6 P P t t P t P P P P P P P P P P P P P P P P P P P ",
"6 =  ...+.6 j j @.6 6 6 6 t t t t V V V V w w w w t t t 6 D D D D D 6 6 6 6 6 6 6 6 D t t P P P P P P P P P P P P P P P P P P P ",
"i 5 #.$.j j | %.&.6 6 6 t 6 6 w t t t t t t t t t 6 6 6 6 6 6 6 D D D D D D D D D D D P t t P P P P P P P P P P P P P P P P P P ",
"( i 6 j j *.5 =.6 6 6 6 6 6 6 6 6 6 6 6 6 6 6 6 6 6 6 6 6 6 6 6 D D D D D D D D D D D P P t P P P P P P P P P P P P P P P P P P ",
": ^ 6 6 6 6 6 6 6 6 6 6 6 6 6 6 6 6 6 6 6 6 6 6 6 6 6 6 D D D D D D D D D D D D D D D D D D D D D D D D D P P P P P P P P P P P ",
". 4 6 6 6 6 6 6 6 6 -.6 6 6 6 6 6 6 6 6 6 6 6 6 6 6 6 6 6 6 D D D D D D D D D D D D D D D D D D D D D P P P P P P P P P P P P P ",
". , _ : / 6 6 6 6 6 6 6 6 ;.6 6 6 6 6 6 6 6 6 6 6 6 6 6 D D D D D D D D D D D D D D D D D D D D P P P P P P P P P P P P P P P P ",
"+ ) + ! < 6 6 6 6 6 6 6 6 6 6 6 6 6 6 6 6 6 6 6 6 6 6 6 D D D D D D D D D D D D D D D D D D D D D D D D P P P P P P P P P P P P ",
">.- } ] 6 6 [ ,.'.).!.~.6 6 6 6 6 6 6 6 6 6 6 6 6 6 6 6 6 D D D D D D D D D D D D D D D D D D D D D D D D P P P P P P P P P P P ",
"{.].^./.(.]._.:.<.[.}.|.1.6 6 6 6 6 6 6 6 6 6 6 D D D D D D D D D D D D D D D D D D D D D D D D D D D D D D P P P P P P P P P P ",
"2.3.4.5.6.7.4.8.9.0.0.a.b.6 6 6 6 6 6 6 6 6 6 6 6 D D D D D D D D D D D D D D D D D D D D D D D D D D D D D D D D P P P P P P P ",
"c.d.e.f.g.h.i.j.k.D D D D D D D D 6 6 6 6 D D D D D D D D D D D D D D D D D D D D D D D D D D D D D D D D D D D P P P P P P P P ",
"l.m.n.o.p.q.r.s.$.t.u.D D D D D D D D D D D D D D D D D D D D D D D D D D D D D D D D D D D D D D D D D D D D D D D D D D D D v.",
"w.x.y.z.A.B.C.D.E.F.G.H.I.].J.K.L.M.D D D D D D D D D D D D D D D D D D D D D D D D D D D D D D ^.N.O.P.D D D D D Q.9.R.D D D D "};
