/* XPM */
static char * so_long_ground_xpm[] = {
"64 64 139 2",
"  	c #20035A",
". 	c #0E0242",
"+ 	c #000135",
"@ 	c #010029",
"# 	c #310455",
"$ 	c #00001C",
"% 	c #00001A",
"& 	c #00001D",
"* 	c #00001E",
"= 	c #000021",
"- 	c #0D0248",
"; 	c #000018",
"> 	c #000016",
", 	c #000017",
"' 	c #00001F",
") 	c #000026",
"! 	c #000028",
"~ 	c #000029",
"{ 	c #00002A",
"] 	c #00002B",
"^ 	c #000022",
"/ 	c #000020",
"( 	c #00001B",
"_ 	c #000019",
": 	c #000024",
"< 	c #000025",
"[ 	c #000027",
"} 	c #000023",
"| 	c #000015",
"1 	c #000013",
"2 	c #000014",
"3 	c #00002C",
"4 	c #00002D",
"5 	c #00002E",
"6 	c #000030",
"7 	c #000120",
"8 	c #00002F",
"9 	c #000140",
"0 	c #000012",
"a 	c #000032",
"b 	c #000033",
"c 	c #000031",
"d 	c #000147",
"e 	c #000139",
"f 	c #00013D",
"g 	c #00013E",
"h 	c #000036",
"i 	c #000134",
"j 	c #000145",
"k 	c #00013F",
"l 	c #000141",
"m 	c #000125",
"n 	c #030025",
"o 	c #000138",
"p 	c #00012A",
"q 	c #00012D",
"r 	c #000132",
"s 	c #000130",
"t 	c #000131",
"u 	c #0A0357",
"v 	c #00013B",
"w 	c #000137",
"x 	c #000136",
"y 	c #02013F",
"z 	c #100252",
"A 	c #00013C",
"B 	c #08024E",
"C 	c #020139",
"D 	c #050253",
"E 	c #1B0459",
"F 	c #1B0454",
"G 	c #020138",
"H 	c #050143",
"I 	c #06013F",
"J 	c #12024F",
"K 	c #1F055F",
"L 	c #050137",
"M 	c #03013B",
"N 	c #040248",
"O 	c #01013D",
"P 	c #030145",
"Q 	c #050247",
"R 	c #020134",
"S 	c #370555",
"T 	c #1C0247",
"U 	c #040247",
"V 	c #2E0560",
"W 	c #020137",
"X 	c #05013D",
"Y 	c #04002F",
"Z 	c #010135",
"` 	c #190245",
" .	c #030135",
"..	c #07013A",
"+.	c #130244",
"@.	c #0A024C",
"#.	c #09024F",
"$.	c #0C0140",
"%.	c #020029",
"&.	c #01002D",
"*.	c #010137",
"=.	c #040130",
"-.	c #02002C",
";.	c #02013B",
">.	c #14035A",
",.	c #0B024B",
"'.	c #05013B",
").	c #1A0243",
"!.	c #15024D",
"~.	c #1B0250",
"{.	c #210357",
"].	c #0B0144",
"^.	c #0F0245",
"/.	c #260352",
"(.	c #0F013E",
"_.	c #050136",
":.	c #2F0458",
"<.	c #1C0354",
"[.	c #070143",
"}.	c #05013F",
"|.	c #0C0143",
"1.	c #110249",
"2.	c #170247",
"3.	c #0F0144",
"4.	c #16024B",
"5.	c #09013B",
"6.	c #14024C",
"7.	c #2A0459",
"8.	c #210354",
"9.	c #1A0249",
"0.	c #2B0356",
"a.	c #0A0144",
"b.	c #160249",
"c.	c #09013E",
"d.	c #010036",
"e.	c #33066F",
"f.	c #250459",
"g.	c #3C066B",
"h.	c #050139",
"          . . . . + @ @ @ @ # # # $ % & & & * * = - - - - - ; > , $ ' = ) ! ~ ~ { ] { ! & & & & & & & & & & ^ ^ & & ^ ^ ^       ",
". . . . . . . . @ @ @ @ @ # # * ' / ^ & & & & ( - - , _ , , % _ $ = : ^ ^ ! { { { ] ! < ) [ ! : = & ' / } & : } = ^ < : = * . . ",
". . . . . . @ @ @ @ # # # * $ $ ' ' % > ; % ( ; | 1 | ; _ ( ( $ / } ) : ^ [ ! ~ ~ ~ ) : ] { ~ [ ~ < } } : ! ! < . . . . . . . . ",
". . . . . . . @ # # # = ' & $ ' } / _ ; ; , % ; 2 > _ % % & ^ } = ) 3 4 ! [ ! { { ! { 4 { ~ 5 3 6 6 6 ) ) [ [ ! : } . . . . . . ",
". . . @ @ @ . . , & / 7 * = ~ < } : : / & ; % % | _ / } ) < ] ) ' ) ] 4 { 3 8 4 ] ] 6 6 6 6 6 6 6 6 6 6 ] 4 < . . . . . . . . . ",
". 4 @ 9 ' | 0 _ * * $ $ ^ ! 5 ] ~ 4 3 ~ ) } ^ = $ : 3 6 a 3 : ' < 5 6 6 6 6 6 6 6 6 b c 6 d d d d 5 6 e f g h 4 [ [ ) . . . . . ",
"9 9 9 9 9 , , ' ' $ & $ : [ ) ! [ [ 3 5 c 6 3 5 ~ { ! ~ [ 6 6 6 6 6 3 { 3 6 3 ~ d d d d d d d d d d d 8 i j d k e . . . [ [ 9 9 ",
"9 9 9 9 9 9 ( * & % & & * ^ } < < < ! { [ ] { ~ 6 6 6 6 6 ( _ ( $ ' = } d d d d d d d d d d d d d d [ [ 6 6 6 . . . 6 6 ! [ ^ 9 ",
"9 9 9 9 & : [ ' ' = } ' ( $ * * = ~ [ [ 6 6 6 6 6 6 6 ^ * d d d d d d d d d % % % % % % % % d 6 6 6 6 6 ^ . . . 6 6 6 6 < 9 9 9 ",
"( = ' ' < ] 4 : ~ ] 3 < ' [ < ) 6 6 6 6 5 6 6 ' ] 6 [ = d % % % % % % % % % % % % % % d 6 6 l 6 6 6 6 6 . 6 ' & ( / < { { 9 9 < ",
"= = = ) { 4 4 ] ! = = = $ 6 6 6 < ! 6 ] 6 } = ~ % % % % % % % % % % % % % % % % % % % % % % % % % % % % % % % % % % % & : 8 = = ",
"= = = = = = 5 [ ^ < 6 6 6 ~ 6 6 6 6 6 6 6 6 6 % % % % l % % % m % % % % % % % % % 6 6 6 6 % % % 6 6 6 6 { ! { ] [ % = % = = = = ",
"= = = ( / { 6 6 6 6 6 6 6 6 < ! { 6 6 6 6 6 6 6 6 l l l % % % % 6 6 % % % % % % % % % % % % 6 6 6 6 6 n ^ : ^ ) ) = = = = = = = ",
"* & 6 6 6 6 6 6 = } = 6 6 6 6 6 6 6 6 6 6 6 l l l l i o + l l l 6 6 6 6 6 6 6 6 6 6 6 6 6 6 6 6 6 6 % % % % [ ^ ^ % = $ ; , % % ",
"6 6 $ 6 6 6 6 6 6 6 6 6 6 6 6 6 6 6 6 l l l l l l l l l l l l 6 6 6 6 6 6 l 6 6 6 6 6 6 6 % % % % % % % 6 6 % % 6 % p * $ $ 6 6 ",
"6 6 6 6 6 6 ^ ~ ~ c 6 6 6 6 ) 6 l l l l l l l l l l l l l l 6 6 6 l l 6 6 6 6 6 l 6 % % % % % % % % % % % % % 6 % % q } [ 6 6 6 ",
"6 6 6 6 r s < 6 6 6 6 6 6 l l l l l l l l l l l l l l l l 6 l l l l 6 6 l l l l % % % % % % % % % % % % % % % % % % % % 6 6 6 6 ",
"6 6 r s 3 6 6 5 a a l l l l l l l l l l l l l l l l l l l l l l l 6 l l l l % % % % % % % % % % % % % % % % % % % % % % 6 6 6 6 ",
"] r t { 6 l l l l l l l l l l l l l l l l l l l l l l g 6 6 l l l l l l % % % % % % % % % % % % % % % % % % % % % % % 6 6 6 6 6 ",
"' ' ) 6 6 l l 6 6 l l l l l 6 6 6 6 l l l l l l l l u l l l l l l 6 l l % % % % % % % % % % % % % % % % % % 6 6 6 6 6 6 % & > 6 ",
"6 v f l 6 6 6 6 6 ] l 6 6 6 6 6 6 l l 6 6 6 6 6 6 6 6 6 l l l u l l u % % % % % % % % 6 6 % % % % % % 6 6 6 6 6 6 6 6 6 ; ' ' ' ",
"a 6 6 6 6 6 6 6 6 6 6 6 6 6 6 6 6 6 6 6 6 6 6 6 6 6 6 6 6 u l l l % % % % 6 % 6 % % 6 6 % % % 6 6 6 6 6 6 6 6 6 6 6 ' ' ' 6 6 6 ",
"' ' ' ' ' ' ' 6 6 6 6 6 6 6 6 6 6 6 6 6 6 6 6 6 l l u l l l l u u l % 6 6 6 6 % % 6 6 % 6 6 6 6 6 6 6 6 6 6 ' ' ' ' 6 6 ' ' ' ' ",
"' ' ' ' 6 6 6 6 6 6 6 6 6 6 6 6 6 u u u u u u u u u l l u l u u u l u u 6 l 6 % 6 6 6 6 6 6 6 6 6 6 6 6 6 ' ' ' ' ' ' ' ' ' ' ' ",
"6 6 6 6 6 6 6 6 6 6 6 6 6 u u u u u u u u u u u u l 6 u l u u u u 6 l l l % 6 6 6 6 6 6 6 6 6 6 6 6 6 6 6 6 6 6 6 6 6 6 6 6 6 6 ",
"6 6 6 6 6 6 6 6 6 6 6 u u u 6 6 6 u u u u 6 6 6 6 6 u l u u u l l l l l 6 6 6 6 6 6 6 6 6 6 6 6 6 6 6 6 6 6 6 6 6 6 6 6 6 6 6 6 ",
"6 6 6 6 6 6 6 6 6 6 6 6 6 6 6 6 u u 6 6 6 6 6 6 6 u l u u l l 6 / * < 6 6 6 6 6 6 6 6 6 6 6 6 6 6 6 6 6 6 6 6 6 6 6 6 6 6 6 6 6 ",
"3 6 6 6 6 6 6 6 6 6 6 6 6 6 6 6 6 6 6 6 6 6 6 u u l u l l 6 6 6 : 6 6 6 6 6 6 6 6 6 6 6 6 6 6 6 6 6 6 6 6 6 6 6 6 6 6 6 6 6 6 6 ",
"6 6 6 6 6 6 6 6 6 6 6 6 6 6 6 6 6 6 6 6 6 u u u l l l 6 w x y 6 6 6 6 6 y y y 6 6 6 6 6 6 6 6 6 6 6 6 6 6 6 6 6 6 6 6 6 6 6 6 6 ",
"6 6 6 6 6 6 6 6 6 6 6 6 6 6 6 6 6 6 6 u u u u 6 l 6 6 6 6 y y y y y y y y y 6 y y y y 6 6 y y 6 6 6 6 6 6 6 6 6 6 6 6 6 6 6 6 6 ",
"6 6 6 6 6 6 6 6 6 6 6 6 6 6 6 6 6 6 u u u 6 j j j j j j y y y y y y y y y y y y y y 6 y y 6 6 6 6 6 6 6 6 6 6 6 6 6 6 6 6 6 6 6 ",
"6 6 6 6 6 6 6 6 6 6 6 6 6 j j j j j j j j j j j j j y y y y y y y y y y y y y y y y y y y 6 6 6 6 6 6 6 6 6 6 6 6 6 6 6 6 6 6 6 ",
"6 6 6 6 6 6 6 j j j j j j j j j j j j j j j j j j j y j y y y y y y y y y y y y y y y y y f f f f f f f f f f f 6 6 6 6 6 6 6 6 ",
"6 6 6 j j j j j j j j j j j j j j j j j j j j j y y y y y y y y y y y y y y y y y y y y y y y y y f f f f f f f f f f f f 6 6 6 ",
"f f f f f f f j j j j j j j j j j j j j y y y y y y y y y y y y y y y y y y y y y y y y y y y f f f f f f f f f f - - - - f f f ",
"j j j j j 6 6 6 6 j j j j j j j j j j j y y y y z y y y y y y y y y y y y y y y y y y y y y - - - - - - - - - - - - - - j j j j ",
"j 6 A 6 6 6 B j j j j j j j j j j j j j j j j z y y y y y z z z z z y y y y - - - - - - - - - - - - - - - - - - - - - - - j j j ",
"6 6 6 6 6 j j j j j j j j j j j j j j j j j z z j z z z z z z z z y y y y y y y y C C C C C C C - - - - - - - f f f f 6 j j 6 6 ",
"6 6 6 j j j j j j j j j j j j j j j j j j j j z z z z z z z z z z z z z z 6 6 C C C C C C C C C - - - - - - - - - - - - 6 6 6 6 ",
"D 6 j j j j j j j j j j j j j j j j j j j j z z z z z z z z z z z z z 6 C C C C C C C C C C C - - - - - - D D D D D D D D D D D ",
"6 6 6 j j j j j j j j j j j j j j j j j z z z z j z z z z z z z z { 6 E C C C C C C - - - - - - - - - - D - - - - - - - - 6 6 6 ",
"6 6 j j j j j j j j j j j j j j j j j z z z j j z z z z z z z z z C C C C C C C C C C - - - - - - - - - - - - 6 6 6 6 6 6 6 6 6 ",
"k k j j j j j / / / / j j j j j j j j z j j j z z z z z z z z z C 6 6 C C F G 6 6 - - C - - - - - - - - - - - - - - - - - 4 6 6 ",
"/ / k k k k k k j j j j j j j j j j j j j z z z z z z z z 6 6 6 6 6 6 6 - - - - - - - - - - - - - - - - - - - - - - - - ~ 6 : / ",
"/ / / / / / / / / / j j j j j 6 j j j j z z z - - - - - - - - - - - - - - - - - - - - - - - - - - - - - - - - - - - - } 6 = / / ",
"j j 6 j j j j j j j j j j 6 j j j j z z z z - - - - - - - - - - - - - - - 6 6 6 6 6 6 6 6 6 - - - - - - - - - - - - - - - - - - ",
"- - - - - - - - j j j 6 j j j j j z z - - - - - - - - - - - - - - - - 6 6 6 6 6 6 6 6 6 - - - H H H H H H H H H H H H H H H - - ",
"c I J K j j j 6 - - - - j 6 6 6 6 - 6 - 6 6 6 - - - - - L 6 6 6 6 6 6 6 6 6 6 6 6 6 6 6 6 6 6 6 6 - - 6 H H H H H H H 6 6 6 6 6 ",
"6 6 j j j 6 6 6 6 6 6 6 6 6 6 6 6 6 6 6 6 6 6 6 6 6 6 6 6 6 6 6 6 6 6 6 6 6 6 6 6 6 6 6 6 H H H H H H H 6 6 6 6 6 6 6 6 6 6 6 6 ",
"M j j 6 6 6 ~ 6 6 6 6 6 6 6 6 6 6 6 6 6 6 6 6 6 6 6 6 6 6 6 6 6 6 6 6 6 6 6 6 6 6 6 6 6 H H H H H H H H H H H H H 6 6 6 6 6 6 6 ",
"6 6 6 N O P 6 j j Q 6 6 6 6 6 6 6 6 6 6 6 6 6 6 6 6 6 6 6 6 6 6 6 6 6 6 6 6 6 H H H H H H H H H H H H H H H H H 6 6 H H H H H 6 ",
"5 4 R S T 6 j j U 6 6 6 6 6 6 6 6 6 6 6 6 6 6 6 6 6 6 6 6 - - - - - 6 6 6 6 6 6 6 6 - H H H H H H H H H H H H H H H H 6 6 6 6 5 ",
"5 5 5 V j j r W X 6 6 6 6 6 6 6 6 6 6 6 6 6 6 6 6 6 6 6 6 6 6 6 - - - - - - - - - - - H H H H H H H H H H H H H H H 6 6 5 5 5 5 ",
"{ i 6 j j Y 5 Z 6 6 6 6 6 6 6 6 6 6 6 6 6 6 6 6 6 6 6 6 6 6 6 6 - - - - - - - - - - - H H H H H H H H H H H H H H 5 5 5 5 5 5 5 ",
"$ ! 6 6 6 6 6 6 6 6 6 6 6 6 6 6 6 6 6 6 6 6 6 6 6 6 6 6 - - - - - - - - - - - - - - - - - - - - - - - - - H H H 5 5 5 5 H $ $ $ ",
"$ 1 6 6 6 6 6 6 6 6 ` 6 6 6 6 6 6 6 6 6 6 6 6 6 6 6 6 6 6 6 - - - - - - - - - - - - - - - - - - - - - H H H H H H $ $ $ $ $ $ $ ",
"$ $ ^ / ~ 6 6 6 6 6 6 6 6  .6 6 6 6 6 6 6 6 6 6 6 6 6 6 - - - - - - - - - - - - - - - - - - - - H H H H H H H H H H H H H $ $ $ ",
"_ $ _ ( < 6 6 6 6 6 6 6 6 6 6 6 6 6 6 6 6 6 6 6 6 6 6 6 - - - - - - - - - - - - - - - - - - - - - - - - H H H H H ( ( ( ( ( ( ( ",
"( ] } ) 6 6 [ ..+.@.#.$.6 6 6 6 6 6 6 6 6 6 6 6 6 6 6 6 6 - - - - - - - - - - & & - - - - - - - - - - - - H H H H ( ( ( ( ( ( ( ",
"( ( %.&.*.@ =.-.;.>.,.'.).6 6 6 6 6 6 6 6 6 6 6 - - # # # # # - - - - - - - - - & & & & - - - - - - - - - - H H H H H ( ( ( ( ( ",
"( ( ( !.~.{.].^./.(.(._.:.6 6 6 6 6 6 6 6 6 6 6 6 # # # # - - - - - - & & & & & - - - & & & & & - - - - - - - - <.<.<.<.<.<.<.<.",
"<.[.}.|.1.2.3.4.5.- - - - - - @ @ 6 6 6 6 - - # # # # - - - - - - - - - - & & & & & & & & & & - & & & - - - - - H <.<.<.<.<.<.<.",
"  6.7.8.9.0.a.b.V c.d.. . @ @ @ - - - # # # # # # # & - - - - - - - - - & & & & & & & & & - & & & - - & & & - - -               ",
"      e.f.g.. . . . . h.@ @ @ # # # # # # # & & & & ( - - - - - - - & & & & & & & & & & & & & & & & & & & & & & ^ ^             "};
